HIERARCHY
ROOT Hips
{
	OFFSET 0.000000 0.000000 0.000000
	CHANNELS 6 Xposition Yposition Zposition Xrotation Yrotation Zrotation
	JOINT LeftUpLeg_virtual
	{
		OFFSET 0.000000 0.000000 0.000000
		CHANNELS 3 Xrotation Yrotation Zrotation
		JOINT LeftUpLeg
		{
			OFFSET 13.026900 -6.336304 -1.092800
			CHANNELS 3 Xrotation Yrotation Zrotation
			JOINT LeftLeg
			{
				OFFSET 0.524474 -46.096886 9.782700
				CHANNELS 3 Xrotation Yrotation Zrotation
				JOINT LeftFoot
				{
					OFFSET -0.524474 -53.427422 -12.948200
					CHANNELS 3 Xrotation Yrotation Zrotation
					JOINT LeftToeBase
					{
						OFFSET 0.192200 -14.009700 16.364100
						CHANNELS 3 Xrotation Yrotation Zrotation
						JOINT LeftToe_End
						{
							OFFSET -1.784700 -0.561700 9.474800
							CHANNELS 3 Xrotation Yrotation Zrotation
							End Site
							{
								OFFSET 0 0 0
							}
						}
					}
				}
			}
		}
	}
	JOINT RightUpLeg_virtual
	{
		OFFSET 0.000000 0.000000 0.000000
		CHANNELS 3 Xrotation Yrotation Zrotation
		JOINT RightUpLeg
		{
			OFFSET -12.883000 -6.336304 -1.092800
			CHANNELS 3 Xrotation Yrotation Zrotation
			JOINT RightLeg
			{
				OFFSET -0.524587 -46.096825 9.782800
				CHANNELS 3 Xrotation Yrotation Zrotation
				JOINT RightFoot
				{
					OFFSET 0.524587 -53.427383 -12.948300
					CHANNELS 3 Xrotation Yrotation Zrotation
					JOINT RightToeBase
					{
						OFFSET -0.192200 -14.009700 16.364100
						CHANNELS 3 Xrotation Yrotation Zrotation
						JOINT RightToe_End
						{
							OFFSET 1.784700 -0.561700 9.474800
							CHANNELS 3 Xrotation Yrotation Zrotation
							End Site
							{
								OFFSET 0 0 0
							}
						}
					}
				}
			}
		}
	}
	JOINT Spine_virtual
	{
		OFFSET 0.000000 0.000000 0.000000
		CHANNELS 3 Xrotation Yrotation Zrotation
		JOINT Spine
		{
			OFFSET 0.072000 7.257294 -0.789700
			CHANNELS 3 Xrotation Yrotation Zrotation
			JOINT Spine1
			{
				OFFSET 0.000000 12.508769 -0.658067
				CHANNELS 3 Xrotation Yrotation Zrotation
				JOINT Spine1_split
				{
					OFFSET 0.000000 12.508769 -0.658067
					CHANNELS 3 Xrotation Yrotation Zrotation
					JOINT Spine2
					{
						OFFSET 0.000000 12.508769 -0.658067
						CHANNELS 3 Xrotation Yrotation Zrotation
						JOINT Neck_virtual
						{
							OFFSET 0.000000 0.000000 0.000000
							CHANNELS 3 Xrotation Yrotation Zrotation
							JOINT Neck
							{
								OFFSET 0.000000 14.033295 7.520400
								CHANNELS 3 Xrotation Yrotation Zrotation
								JOINT Head
								{
									OFFSET 0.000000 8.198502 5.703100
									CHANNELS 3 Xrotation Yrotation Zrotation
									JOINT HeadTop_End
									{
										OFFSET 0.000000 17.760803 13.332701
										CHANNELS 3 Xrotation Yrotation Zrotation
										End Site
										{
											OFFSET 0 0 0
										}
									}
								}
							}
						}
						JOINT LeftShoulder_virtual
						{
							OFFSET 0.000000 0.000000 0.000000
							CHANNELS 3 Xrotation Yrotation Zrotation
							JOINT LeftShoulder
							{
								OFFSET 6.292450 5.785301 -0.669000
								CHANNELS 3 Xrotation Yrotation Zrotation
								JOINT LeftShoulder_split
								{
									OFFSET 6.292450 5.785301 -0.669000
									CHANNELS 3 Xrotation Yrotation Zrotation
									JOINT LeftArm
									{
										OFFSET 13.907140 -6.093903 1.965100
										CHANNELS 3 Xrotation Yrotation Zrotation
										JOINT LeftForeArm
										{
											OFFSET 34.140198 0.000000 0.000000
											CHANNELS 3 Xrotation Yrotation Zrotation
											JOINT LeftHand
											{
												OFFSET 40.960209 0.000000 0.000000
												CHANNELS 3 Xrotation Yrotation Zrotation
												End Site
												{
													OFFSET 0 0 0
												}
											}
										}
									}
								}
							}
						}
						JOINT RightShoulder_virtual
						{
							OFFSET 0.000000 0.000000 0.000000
							CHANNELS 3 Xrotation Yrotation Zrotation
							JOINT RightShoulder
							{
								OFFSET -6.292450 5.785301 -0.669000
								CHANNELS 3 Xrotation Yrotation Zrotation
								JOINT RightShoulder_split
								{
									OFFSET -6.292450 5.785301 -0.669000
									CHANNELS 3 Xrotation Yrotation Zrotation
									JOINT RightArm
									{
										OFFSET -13.907140 -6.093903 1.965100
										CHANNELS 3 Xrotation Yrotation Zrotation
										JOINT RightForeArm
										{
											OFFSET -34.140198 0.000000 0.000000
											CHANNELS 3 Xrotation Yrotation Zrotation
											JOINT RightHand
											{
												OFFSET -40.960209 0.000000 0.000000
												CHANNELS 3 Xrotation Yrotation Zrotation
												End Site
												{
													OFFSET 0 0 0
												}
											}
										}
									}
								}
							}
						}
					}
				}
			}
		}
	}
}
MOTION
Frames: 9
Frame Time: 0.03333333
8.305132 115.173363 -0.492455 0.000000 0.000000 0.000000 -4.108676 3.613510 10.995556 -33.353521 11.844498 0.519228 21.833680 4.671759 6.794597 24.086662 0.508944 -7.770894 -5.387637 1.003209 4.857532 0.000000 0.000000 0.000000 -5.475212 5.035762 11.190587 -7.192180 -4.153027 7.225969 26.894782 -11.278554 -0.498217 -22.991925 -17.166308 -5.050869 -6.181434 1.523334 -4.513345 0.000000 0.000000 0.000000 -6.287277 4.490042 10.114041 5.314590 1.753447 -3.188811 0.194804 3.317767 -6.168325 0.010804 -0.803891 0.076969 0.000000 0.000000 0.000000 1.837080 6.057365 -6.837192 -5.853079 5.882608 18.707335 7.140503 21.658690 3.177973 0.000000 0.000000 0.000000 0.202506 4.022544 -7.243959 1.681017 4.005603 2.624175 -6.528205 1.334683 -2.867348 -19.339969 -2.779347 -30.897358 0.056687 -15.198610 -0.797737 0.000000 0.000000 0.000000 1.965172 4.510757 -6.649407 4.170632 -7.258091 4.014159 -9.161740 0.448404 -2.573047 -49.053247 20.230370 6.653045 -6.410550 22.988585 7.762127 0.000000 0.000000 0.000000 
7.302542 114.907845 -0.206585 0.000000 0.000000 0.000000 -4.326129 2.910494 11.176902 -35.211674 12.381461 -0.972753 20.185658 5.712932 6.971621 24.734815 0.641074 -7.478830 -5.490226 0.753801 5.328657 0.000000 0.000000 0.000000 -5.066001 3.755228 11.294355 -6.703070 -6.176748 7.216509 29.219529 -11.195208 0.047400 -22.748017 -16.414958 -5.567288 -7.971711 1.648709 -4.145260 0.000000 0.000000 0.000000 -6.225392 4.142861 10.090909 5.647928 1.770128 -3.550456 0.165991 3.392502 -6.120839 0.103621 -0.804275 0.106819 0.000000 0.000000 0.000000 1.851791 6.157487 -6.887149 -6.063485 5.761991 18.601375 7.374653 22.084203 3.081844 0.000000 0.000000 0.000000 0.116505 4.159566 -7.064137 1.595462 4.401385 4.141688 -6.459075 0.266840 -1.227397 -22.292419 -2.158757 -28.981237 -0.577407 -16.096469 -0.947891 0.000000 0.000000 0.000000 1.900173 4.566785 -6.645118 3.968168 -6.720201 3.731472 -8.854304 1.526349 -3.039414 -50.333399 23.703758 8.016231 -6.135430 24.312258 7.246351 0.000000 0.000000 0.000000 
5.879379 114.685158 0.444263 0.000000 0.000000 0.000000 -4.162976 0.219784 11.323408 -36.558407 13.155545 -3.616046 18.441347 7.675095 7.198774 25.833329 2.207503 -7.283230 -5.619120 0.456538 5.807110 0.000000 0.000000 0.000000 -4.358716 0.664572 11.487886 -5.713666 -8.057217 6.936727 31.790880 -10.819863 0.533435 -22.684486 -14.559124 -6.057993 -10.358900 1.692620 -3.372343 0.000000 0.000000 0.000000 -5.984807 2.187888 10.062402 5.759820 1.968766 -4.128145 0.143459 3.552087 -5.963803 0.152476 -0.867305 0.130767 0.000000 0.000000 0.000000 1.874552 6.285866 -6.734533 -6.101376 5.760967 18.073656 8.158545 22.240271 2.485166 0.000000 0.000000 0.000000 0.034774 4.347913 -6.714429 1.471503 5.178234 6.146576 -5.798989 -0.227234 -0.473914 -24.115902 -1.964744 -25.169404 -0.148024 -16.684714 -0.512512 0.000000 0.000000 0.000000 1.774053 4.660317 -6.475458 3.799990 -6.022734 3.016718 -7.821100 1.293669 -2.735123 -52.982792 28.852451 10.149931 -5.030638 24.360353 5.880699 0.000000 0.000000 0.000000 
4.122007 114.476883 1.265686 0.000000 0.000000 0.000000 -3.629959 -3.673049 11.427310 -36.963806 13.962441 -6.977468 17.108365 10.463986 7.487318 26.835127 5.159612 -7.112756 -4.933430 0.271535 5.856284 0.000000 0.000000 0.000000 -3.435043 -3.863364 11.679893 -4.512684 -9.533510 6.423776 33.307633 -10.134647 0.696728 -23.190995 -11.757082 -6.616610 -11.995597 1.700556 -2.554910 0.000000 0.000000 0.000000 -5.395368 -0.990740 9.931880 5.582401 2.286062 -4.761204 0.112502 3.760812 -5.712151 0.082379 -0.879562 0.121585 0.000000 0.000000 0.000000 1.817647 6.399617 -6.381684 -5.859714 5.884485 17.184621 9.532263 22.088195 1.459558 0.000000 0.000000 0.000000 -0.057424 4.538520 -6.284996 1.314388 6.375955 8.194788 -4.608903 0.032517 -0.580179 -24.457743 -1.950457 -20.500492 1.052803 -15.851305 0.396580 0.000000 0.000000 0.000000 1.648589 4.783736 -6.192061 3.688987 -5.268650 1.971869 -6.567699 0.108378 -2.140727 -56.738235 34.147353 12.543167 -3.417156 23.007531 4.010080 0.000000 0.000000 0.000000 
2.167106 114.381729 2.352112 0.000000 0.000000 0.000000 -2.831895 -8.054110 11.392689 -36.743020 14.467720 -10.492044 16.405537 13.705528 7.723154 27.492678 8.866606 -6.773232 -3.462349 0.204383 5.334461 0.000000 0.000000 0.000000 -2.327982 -9.060105 11.759270 -3.308433 -10.687032 5.815203 33.671443 -8.986601 0.512448 -23.290428 -8.310338 -6.203712 -12.680162 1.812895 -2.118380 0.000000 0.000000 0.000000 -4.382171 -4.825555 9.743428 5.059879 2.600218 -5.327692 0.032935 3.957343 -5.385721 0.021946 -0.820205 0.057302 0.000000 0.000000 0.000000 1.701063 6.468548 -5.895249 -5.225400 6.150261 16.011673 11.172167 21.735390 0.131789 0.000000 0.000000 0.000000 -0.170493 4.716261 -5.860112 1.112477 7.977804 9.953940 -3.078867 0.801601 -0.368131 -23.643581 -2.013187 -15.777716 2.460314 -13.499670 1.487199 0.000000 0.000000 0.000000 1.565680 4.886191 -5.866353 3.663737 -4.410007 0.816220 -5.974756 -1.036564 -1.498534 -61.112721 38.480852 14.849963 -1.741206 20.723796 2.135252 0.000000 0.000000 0.000000 
0.065983 114.284912 3.540741 0.000000 0.000000 0.000000 -2.093165 -12.129301 11.053222 -36.131912 14.272222 -13.437828 16.770776 16.237264 7.691147 27.971559 12.088818 -6.576068 -2.692476 0.130860 4.602953 0.000000 0.000000 0.000000 -1.485182 -13.711214 11.562113 -2.393914 -11.739241 5.324290 33.460253 -7.259660 0.185603 -21.801651 -4.724759 -3.883683 -13.009627 2.111043 -2.375040 0.000000 0.000000 0.000000 -3.190281 -8.663588 9.432381 4.247716 2.843587 -5.733341 -0.128033 4.114228 -5.049644 0.085069 -0.659647 0.006266 0.000000 0.000000 0.000000 1.548611 6.497996 -5.386180 -4.165600 6.541092 14.613572 12.787449 21.277679 -1.323331 0.000000 0.000000 0.000000 -0.305466 4.874059 -5.524788 0.888132 9.814988 11.160059 -2.080444 1.530086 -0.037431 -22.439331 -1.762810 -11.431650 3.486474 -10.320706 2.452762 0.000000 0.000000 0.000000 1.561968 4.989459 -5.591365 3.696705 -3.434921 -0.294693 -5.659482 -1.423286 -1.076320 -65.398850 41.288388 16.670936 -0.353563 18.413773 0.697783 0.000000 0.000000 0.000000 
-2.209246 114.049057 4.658867 0.000000 0.000000 0.000000 -1.614825 -15.644388 10.342284 -35.284382 13.467752 -15.354118 18.540487 17.863707 7.165230 27.808142 14.515907 -6.109003 -3.227116 0.009989 3.848023 0.000000 0.000000 0.000000 -0.930848 -17.070851 10.888486 -1.832562 -13.152611 5.017221 33.410126 -5.081078 -0.147572 -18.770384 -1.391230 0.130975 -13.631057 2.605236 -3.353428 0.000000 0.000000 0.000000 -2.189340 -12.230428 8.866226 3.295548 3.027007 -5.842450 -0.335969 4.295996 -4.787277 0.190939 -0.357750 0.016476 0.000000 0.000000 0.000000 1.396853 6.519019 -4.996827 -2.749880 7.011307 13.113022 14.163184 21.269537 -2.787493 0.000000 0.000000 0.000000 -0.459349 5.033861 -5.368274 0.687259 11.688490 11.706151 -1.450812 1.865905 0.933785 -22.095228 -1.344914 -7.912788 3.759278 -7.203383 3.108591 0.000000 0.000000 0.000000 1.632219 5.137189 -5.440752 3.723093 -2.401254 -1.176276 -5.382860 -1.410882 -0.870211 -69.068874 42.606396 17.857946 0.656117 16.835935 -0.117750 0.000000 0.000000 0.000000 
-4.629969 113.374397 5.543800 0.000000 0.000000 0.000000 -1.609357 -18.343557 9.305328 -34.118308 12.527021 -16.075701 21.322286 18.937932 6.078961 25.846510 16.656439 -4.335623 -4.623142 -0.112857 3.100888 0.000000 0.000000 0.000000 -0.831082 -19.276242 9.753230 -1.673596 -15.224891 4.921956 34.065770 -3.066746 -0.492613 -15.052499 1.493670 4.558336 -14.886915 3.245484 -4.808996 0.000000 0.000000 0.000000 -1.726170 -15.292715 8.088975 2.437696 3.163528 -5.708082 -0.462250 4.558447 -4.699709 0.231272 -0.081962 0.015954 0.000000 0.000000 0.000000 1.346300 6.605390 -4.853560 -1.110199 7.485851 11.640552 14.960408 21.834960 -4.167430 0.000000 0.000000 0.000000 -0.630192 5.263985 -5.399636 0.556112 13.335092 11.640315 -1.404856 1.635765 2.073049 -22.937905 -1.243496 -5.261838 3.494344 -5.391718 3.456640 0.000000 0.000000 0.000000 1.691553 5.357004 -5.451837 3.669896 -1.379128 -1.615397 -5.319239 -1.519996 -0.545565 -71.846357 42.817906 18.685191 1.325856 16.173087 -0.305769 0.000000 0.000000 0.000000 
-7.087680 112.218712 6.062443 0.000000 0.000000 0.000000 -2.141356 -20.401869 8.123632 -32.640443 11.749607 -15.729716 24.476114 19.333463 4.675665 21.436124 18.478051 -1.426621 -6.033198 -0.190126 2.426262 0.000000 0.000000 0.000000 -1.347869 -20.885245 8.347604 -2.280254 -17.988640 4.566601 36.214896 -1.835837 -0.714078 -11.310269 3.476893 7.396271 -15.924649 3.980995 -6.343003 0.000000 0.000000 0.000000 -2.016708 -17.595320 7.188658 1.889658 3.237924 -5.484451 -0.445478 4.848800 -4.842646 0.208805 0.115225 0.008563 0.000000 0.000000 0.000000 1.397845 6.762863 -4.991294 0.388076 7.787973 10.268633 14.937854 23.117564 -5.316700 0.000000 0.000000 0.000000 -0.785208 5.552790 -5.604791 0.516754 14.468198 11.101633 -1.636560 0.771776 2.844097 -24.785913 -1.579942 -3.399182 3.020522 -5.186631 3.472529 0.000000 0.000000 0.000000 1.719827 5.635575 -5.625056 3.489758 -0.498750 -1.466836 -5.461644 -1.856630 -0.131484 -73.550694 42.003604 19.295247 1.702400 16.449042 0.075780 0.000000 0.000000 0.000000 
